<svg xmlns="http://www.w3.org/2000/svg" fill="none" viewBox="0 0 993 400" height="400" width="993">
<path fill="#313131" d="M68.663 399.977C47.4417 399.977 30.7096 395.713 18.4326 387.196C6.14419 378.679 0 368.427 0 356.417C0 351.394 0.70284 346.857 2.10852 342.809C3.5142 338.76 6.50694 334.076 11.1207 328.78C15.7119 323.484 22.7743 316.645 32.2513 308.265C35.5955 305.203 37.2846 302.333 37.2846 299.68C37.2846 297.026 35.5955 295.007 32.2513 293.601C22.2188 289.428 16.1993 284.041 14.2609 277.486C12.2997 270.919 14.6803 264.841 21.3686 259.261L51.5001 233.291C54.8442 230.501 54.7082 228.131 51.0806 226.18C39.6425 220.601 30.5849 211.936 23.8739 200.21C17.1856 188.483 13.8414 175.929 13.8414 162.524C13.8414 149.12 16.6301 138.085 22.2188 127.754C27.7849 117.434 35.3234 109.189 44.8231 103.042C54.3001 96.9068 64.922 93.8335 76.6436 93.8335C83.3319 93.8335 89.7482 94.9449 95.9037 97.179C99.8147 98.5853 102.173 97.3151 103.011 93.4139C105.517 82.8102 110.199 74.4975 117.023 68.4982C123.881 62.4989 130.638 59.4823 137.337 59.4823C144.037 59.4823 148.991 61.3649 153.038 65.1413C157.085 68.9065 159.125 73.5789 159.125 79.1585C159.125 83.9103 157.72 87.6754 154.942 90.4766C152.131 93.2664 148.651 94.65 144.456 94.65C140.829 94.65 138.187 93.9582 136.498 92.552C134.832 91.157 133.29 89.7621 131.907 88.3786C130.502 86.9836 128.28 86.2805 125.196 86.2805C118.508 86.2805 114.314 89.9096 112.659 97.1677C111.82 99.9688 111.888 102.339 112.874 104.278C113.837 106.24 115.311 108.202 117.25 110.141C123.961 116.583 129.187 124.385 132.95 133.594C136.714 142.814 138.607 153.01 138.607 164.18C138.607 177.585 135.898 189.584 130.445 200.187C124.992 210.802 117.601 219.183 108.26 225.318C98.8964 231.465 88.3765 234.538 76.6549 234.538C71.6217 234.538 67.2913 235.582 63.6637 237.68C60.0362 239.778 56.4086 242.783 52.781 246.684L45.6733 254.645C42.0457 259.114 40.9915 263.378 42.5332 267.427C44.0522 271.475 47.8952 273.505 54.0394 273.505H90.0202C110.119 273.505 126.024 278.472 137.757 288.373C149.478 298.285 155.35 311.894 155.35 329.211C155.35 342.888 151.417 355.045 143.629 365.649C135.818 376.264 125.4 384.645 112.443 390.791C99.4519 396.927 84.885 400 68.6856 400L68.663 399.977ZM73.6962 390.757C83.7287 390.757 92.9563 388.512 101.334 384.055C109.688 379.587 116.331 373.372 121.195 365.422C126.08 357.461 128.54 348.456 128.54 338.397C128.54 325.843 124.822 316.135 117.431 309.285C110.04 302.447 99.6446 299.033 86.2453 299.033H76.6323C67.9715 299.033 61.4985 299.861 57.1681 301.54C52.8377 303.218 48.7227 306.155 44.8117 310.34C36.1509 319.549 30.7209 326.943 28.4764 332.534C26.2545 338.113 25.1322 343.852 25.1322 349.715C25.1322 361.997 29.3946 371.909 37.908 379.439C46.4215 386.969 58.3357 390.757 73.7075 390.757H73.6962ZM76.1902 224.071C86.2226 224.071 94.1806 218.627 100.053 207.729C105.902 196.842 108.85 182.053 108.85 163.341C108.85 144.629 105.834 130.612 99.8373 119.577C93.8292 108.542 85.9392 103.031 76.1788 103.031C66.4184 103.031 58.5171 108.542 52.5203 119.577C46.5122 130.6 43.5081 145.196 43.5081 163.341C43.5081 181.486 46.4555 196.853 52.3049 207.729C58.177 218.627 66.135 224.071 76.1675 224.071H76.1902Z"></path>
<path fill="#313131" d="M149.875 309.92C146.531 309.92 144.842 308.389 144.842 305.305C144.842 302.515 146.384 300.848 149.456 300.281L155.305 299.441C161.177 298.614 165.508 296.935 168.296 294.418C171.085 291.9 172.479 287.715 172.479 281.852V41.8701C172.479 36.8461 171.708 33.3645 170.189 31.4026C168.648 29.452 165.927 28.3406 162.027 28.057L152.392 26.7982C149.331 26.2425 147.778 24.5754 147.778 21.7743C147.778 18.9731 149.32 17.306 152.392 16.739C160.202 15.0605 166.902 13.1213 172.491 10.8758C178.079 8.653 182.67 6.41887 186.321 4.18474C190.764 1.39491 194.109 0 196.353 0C199.414 0 200.967 2.23413 200.967 6.69105V281.852C200.967 287.715 201.851 291.843 203.676 294.213C205.479 296.584 209.333 298.194 215.183 299.033L224.818 300.281C227.879 300.848 229.409 302.515 229.409 305.305C229.409 308.378 227.743 309.92 224.399 309.92H149.875Z"></path>
<path fill="#313131" d="M263.747 314.116C254.53 314.116 247.978 310.692 244.067 303.853C240.156 297.015 240.02 285.787 243.648 270.137L274.629 137.371C276.035 131.235 276.239 126.415 275.264 122.934C274.289 119.452 271.704 117.706 267.521 117.706C262.488 117.706 256.99 121.403 250.982 128.797C244.997 136.191 238.206 150.231 230.668 170.883C229.568 174.523 227.607 176.338 224.818 176.338C220.635 176.338 219.502 173.82 221.474 168.785C227.607 149.517 234.08 134.445 240.938 123.558C247.774 112.659 254.678 104.981 261.649 100.513C268.621 96.0563 275.06 93.8221 280.909 93.8221C290.692 93.8221 297.517 97.2357 301.428 104.086C305.339 110.924 305.475 122.151 301.847 137.79L270.866 270.557C269.46 276.703 269.256 281.523 270.231 285.016C271.206 288.509 273.79 290.244 277.973 290.244C283.007 290.244 288.505 286.547 294.513 279.153C300.498 271.759 307.289 257.719 314.827 237.056C315.927 233.438 317.888 231.612 320.677 231.612C324.86 231.612 325.993 234.13 324.021 239.154C318.171 258.15 311.687 273.154 304.557 284.177C297.449 295.211 290.398 302.957 283.426 307.425C276.454 311.894 269.879 314.128 263.747 314.128V314.116Z"></path>
<path fill="#313131" d="M324.871 309.92C320.688 309.92 318.579 308.389 318.579 305.305C318.579 302.798 320.405 301.131 324.032 300.281L329.065 299.441C334.915 298.33 338.746 296.584 340.571 294.213C342.374 291.855 343.281 287.715 343.281 281.852V141.136C343.281 136.1 342.51 132.687 340.991 130.872C339.449 129.058 336.729 127.878 332.829 127.311L324.032 126.053C320.405 125.78 318.579 124.238 318.579 121.448C318.579 119.214 320.824 117.683 325.29 116.833C333.928 115.438 340.571 113.203 345.174 110.13C349.765 107.068 354.583 103.292 359.605 98.8234C362.11 96.3171 364.219 95.0583 365.874 95.0583C368.402 95.0583 369.637 96.7367 369.637 100.094V118.942C369.637 120.893 370.476 122.355 372.165 123.342C373.832 124.329 375.657 123.83 377.595 121.868C389.033 110.981 399.032 103.587 407.545 99.674C416.036 95.7614 424.629 93.8108 433.278 93.8108C441.372 93.8108 448.56 95.9769 454.828 100.298C461.12 104.641 465.779 111.128 468.863 119.781C469.701 122.015 471.152 123.342 473.261 123.75C475.347 124.17 477.376 123.41 479.326 121.46C490.764 110.845 500.683 103.587 509.06 99.674C517.415 95.7614 525.929 93.8108 534.589 93.8108C546.311 93.8108 555.856 98.211 563.27 107C570.661 115.801 574.357 128.706 574.357 145.74V281.852C574.357 287.715 575.241 291.843 577.066 294.213C578.891 296.584 582.723 298.194 588.572 299.033L597.788 300.281C600.849 300.848 602.402 302.515 602.402 305.305C602.402 308.378 600.713 309.92 597.369 309.92H525.77C521.859 309.92 519.92 308.389 519.92 305.305C519.92 302.515 521.44 300.848 524.534 300.281L530.384 299.441C536.8 298.614 540.983 296.935 542.944 294.418C544.883 291.9 545.869 287.715 545.869 281.852V150.344C545.869 136.668 543.432 127.028 538.546 121.448C533.66 115.869 527.04 113.067 518.662 113.067C510.285 113.067 502.678 115.653 495.854 120.813C488.996 125.985 483.497 132.823 479.314 141.329C475.131 149.845 473.046 159.281 473.046 169.601V281.841C473.046 287.704 474.009 291.832 475.97 294.202C477.909 296.572 481.956 298.183 488.111 299.022L497.328 300.269C500.388 300.836 501.919 302.504 501.919 305.293C501.919 308.367 500.252 309.909 496.908 309.909H425.729C421.818 309.909 419.856 308.378 419.856 305.293C419.856 302.504 421.398 300.836 424.47 300.269L430.342 299.43C436.192 298.602 440.023 296.924 441.849 294.406C443.651 291.889 444.558 287.704 444.558 281.841V150.333C444.558 136.656 442.121 127.017 437.235 121.437C432.349 115.857 425.729 113.056 417.351 113.056C408.974 113.056 401.367 115.642 394.543 120.802C387.684 125.973 382.186 132.812 378.003 141.317C373.82 149.834 371.735 159.27 371.735 169.59V281.829C371.735 287.692 372.619 291.877 374.444 294.395C376.246 296.912 380.101 298.444 385.95 299.011L397.252 300.258C400.313 300.825 401.866 302.356 401.866 304.874C401.866 308.219 399.78 309.898 395.597 309.898H324.837L324.871 309.92Z"></path>
<path fill="#313131" d="M598.661 309.92C594.478 309.92 592.37 308.389 592.37 305.305C592.37 302.798 594.195 301.131 597.822 300.281L602.856 299.441C608.705 298.33 612.537 296.584 614.362 294.213C616.164 291.855 617.071 287.715 617.071 281.852V141.136C617.071 136.1 616.3 132.687 614.781 130.872C613.24 129.058 610.519 127.878 606.619 127.311L597.822 126.053C594.195 125.78 592.37 124.238 592.37 121.448C592.37 119.214 594.614 117.683 599.081 116.833C607.719 115.438 614.362 113.203 618.964 110.13C623.555 107.068 628.373 103.292 633.395 98.8234C635.9 96.3171 638.009 95.0583 639.664 95.0583C642.192 95.0583 643.428 96.7367 643.428 100.094V118.942C643.428 120.893 644.267 122.355 645.956 123.342C647.622 124.329 649.447 123.83 651.386 121.868C662.824 110.981 672.822 103.587 681.336 99.674C689.826 95.7614 698.419 93.8108 707.069 93.8108C715.163 93.8108 722.35 95.9769 728.619 100.298C734.91 104.641 739.569 111.128 742.653 119.781C743.492 122.015 744.943 123.342 747.051 123.75C749.137 124.17 751.166 123.41 753.116 121.46C764.554 110.845 774.473 103.587 782.851 99.674C791.206 95.7614 799.719 93.8108 808.38 93.8108C820.101 93.8108 829.646 98.211 837.06 107C844.451 115.801 848.147 128.706 848.147 145.74V281.852C848.147 287.715 849.031 291.843 850.856 294.213C852.681 296.584 856.513 298.194 862.362 299.033L871.579 300.281C874.639 300.848 876.193 302.515 876.193 305.305C876.193 308.378 874.503 309.92 871.159 309.92H799.56C795.649 309.92 793.711 308.389 793.711 305.305C793.711 302.515 795.23 300.848 798.325 300.281L804.174 299.441C810.59 298.614 814.773 296.935 816.734 294.418C818.673 291.9 819.659 287.715 819.659 281.852V150.344C819.659 136.668 817.222 127.028 812.336 121.448C807.45 115.869 800.83 113.067 792.452 113.067C784.075 113.067 776.469 115.653 769.644 120.813C762.786 125.985 757.288 132.823 753.105 141.329C748.922 149.845 746.836 159.281 746.836 169.601V281.841C746.836 287.704 747.799 291.832 749.761 294.202C751.699 296.572 755.746 298.183 761.902 299.022L771.118 300.269C774.179 300.836 775.709 302.504 775.709 305.293C775.709 308.367 774.043 309.909 770.698 309.909H699.519C695.608 309.909 693.647 308.378 693.647 305.293C693.647 302.504 695.188 300.836 698.261 300.269L704.133 299.43C709.982 298.602 713.814 296.924 715.639 294.406C717.441 291.889 718.348 287.704 718.348 281.841V150.333C718.348 136.656 715.911 127.017 711.025 121.437C706.139 115.857 699.519 113.056 691.141 113.056C682.764 113.056 675.158 115.642 668.333 120.802C661.475 125.973 655.977 132.812 651.794 141.317C647.611 149.834 645.525 159.27 645.525 169.59V281.829C645.525 287.692 646.409 291.877 648.234 294.395C650.037 296.912 653.891 298.444 659.74 299.011L671.043 300.258C674.103 300.825 675.656 302.356 675.656 304.874C675.656 308.219 673.57 309.898 669.387 309.898H598.627L598.661 309.92Z"></path>
<path fill="#313131" d="M924.337 123.138C935.775 103.598 949.605 93.8221 965.793 93.8221C974.987 93.8221 981.845 96.5326 986.312 101.987C990.755 107.431 993 113.498 993 120.201C993 125.52 991.662 129.829 989.021 133.197C986.357 136.543 982.265 138.221 976.665 138.221C972.198 138.221 968.922 137.178 966.836 135.08C964.728 132.982 963.073 130.544 961.803 127.742C960.545 124.953 959.094 122.514 957.405 120.416C955.716 118.318 952.938 117.275 949.027 117.275C943.994 117.275 939.244 120.269 934.8 126.279C930.334 132.279 926.638 140.308 923.714 150.367C920.766 160.415 919.315 171.869 919.315 184.707V281.875C919.315 287.738 920.199 291.923 922.024 294.44C923.827 296.958 927.681 298.489 933.531 299.056L944.833 300.303C947.894 300.87 949.447 302.401 949.447 304.919C949.447 308.265 947.361 309.943 943.178 309.943H872.418C868.235 309.943 866.126 308.412 866.126 305.327C866.126 302.821 867.951 301.154 871.579 300.303L876.612 299.464C882.461 298.353 886.293 296.606 888.118 294.236C889.921 291.877 890.827 287.738 890.827 281.875V141.158C890.827 136.123 890.057 132.71 888.538 130.895C886.996 129.081 884.275 127.901 880.376 127.334L871.579 126.075C867.951 125.803 866.126 124.261 866.126 121.471C866.126 119.237 868.371 117.706 872.837 116.855C881.475 115.46 888.118 113.226 892.721 110.153C897.312 107.091 902.13 103.314 907.151 98.8461C909.657 96.3398 911.765 95.0809 913.42 95.0809C915.948 95.0809 917.184 96.7594 917.184 100.116V122.73C917.184 124.68 918.023 125.871 919.712 126.291C921.378 126.71 922.92 125.656 924.303 123.149L924.337 123.138Z"></path>
<path fill="#313131" d="M316.425 2.1322C316.845 2.57449 316.527 2.98275 316.199 3.36834C314.668 5.14884 313.127 6.918 311.619 8.6985C306.382 14.8792 301.337 21.2074 296.882 27.9778C293.345 33.342 290.171 38.9103 288.3 45.125C286.793 50.1376 286.407 55.1843 287.892 60.2763C289.071 64.3249 291.18 67.8859 293.753 71.1861C297.063 75.4389 300.952 79.1133 304.965 82.6856C305.214 82.9124 305.475 83.1279 305.724 83.3661C306.03 83.6723 306.053 84.0352 305.792 84.3527C305.531 84.6816 305.169 84.6929 304.817 84.4548C304.704 84.3867 304.602 84.3074 304.511 84.2166C301.802 81.8578 299.002 79.6009 296.043 77.5483C291.599 74.4636 286.917 71.8439 281.612 70.5397C274.538 68.7932 267.895 70.1654 261.581 73.545C256.831 76.0853 252.603 79.3514 248.59 82.9011C241.188 89.4561 234.556 96.7595 228.004 104.142C227.55 104.653 227.153 105.197 226.723 105.719C226.439 106.059 226.076 106.184 225.691 105.889C225.306 105.594 225.34 105.197 225.612 104.857C226.212 104.097 226.813 103.36 227.448 102.623C232.039 97.3265 236.494 91.9284 240.655 86.2807C245.019 80.3494 249.111 74.2368 252.002 67.4096C253.85 63.0434 255.097 58.5411 255.029 53.744C254.961 49.151 253.533 44.9549 251.22 41.0424C248.363 36.1998 244.532 32.1739 240.473 28.3407C239.204 27.1386 237.889 25.9932 236.596 24.8251C236.222 24.4848 235.837 24.1219 236.302 23.5776C236.789 23.0219 237.175 23.3961 237.56 23.725C241.686 27.32 245.994 30.6769 250.778 33.376C255.686 36.1431 260.844 38.0711 266.569 38.0824C271.557 38.0824 276.137 36.5968 280.49 34.2833C285.285 31.7202 289.536 28.3974 293.583 24.8024C301.246 17.9866 308.082 10.3769 314.861 2.71057C315.054 2.4951 315.235 2.27963 315.451 2.08683C315.745 1.826 316.051 1.81465 316.425 2.1322Z"></path>
</svg>
