<svg xmlns="http://www.w3.org/2000/svg" viewBox="0 -1506 13270 1578">
<g transform="scale(1,-1)">
<path transform="translate(0,0)" d="M2120 0H1518V579H762V0H160V1435H762V855H1518V1435H2120Z" fill="#313131"/><path transform="translate(2280,0)" d="M2410 0H1800L1665 235H760L625 0H15L933 1434H1492ZM1462 590 1213 1025 963 590Z" fill="#313131"/><path transform="translate(4705,0)" d="M2119 0H1550Q1511 54 1495 138Q1481 203 1453.0 265.5Q1425 328 1356.5 369.5Q1288 411 1153 414H762V0H160V1435H1139Q1490 1435 1705.5 1382.5Q1921 1330 2020.0 1217.5Q2119 1105 2119 924Q2119 773 2050.5 670.0Q1982 567 1834 507Q1977 448 2019.5 365.5Q2062 283 2072 184Q2082 96 2119 0ZM762 768 1106 769Q1250 769 1333.0 782.0Q1416 795 1455.5 817.5Q1495 840 1506.0 867.5Q1517 895 1517 924Q1517 953 1506.0 981.0Q1495 1009 1455.5 1031.5Q1416 1054 1333.0 1067.0Q1250 1080 1106 1080H762Z" fill="#313131"/><path transform="translate(6904,0)" d="M762 0H160V1435H1139Q1490 1435 1705.5 1382.5Q1921 1330 2020.0 1217.5Q2119 1105 2119 924Q2119 744 2020.0 631.5Q1921 519 1705.5 466.5Q1490 414 1139 414H762ZM762 768 1106 769Q1250 769 1333.0 780.5Q1416 792 1455.5 813.0Q1495 834 1506.0 862.5Q1517 891 1517 924Q1517 958 1506.0 986.5Q1495 1015 1455.5 1036.0Q1416 1057 1333.0 1068.5Q1250 1080 1106 1080H762Z" fill="#313131"/><path transform="translate(9103,0)" d="M1888 0H160V1435H1809V1080H762V855H1647V579H762V355H1888Z" fill="#313131"/><path transform="translate(11071,0)" d="M2119 0H1550Q1511 54 1495 138Q1481 203 1453.0 265.5Q1425 328 1356.5 369.5Q1288 411 1153 414H762V0H160V1435H1139Q1490 1435 1705.5 1382.5Q1921 1330 2020.0 1217.5Q2119 1105 2119 924Q2119 773 2050.5 670.0Q1982 567 1834 507Q1977 448 2019.5 365.5Q2062 283 2072 184Q2082 96 2119 0ZM762 768 1106 769Q1250 769 1333.0 782.0Q1416 795 1455.5 817.5Q1495 840 1506.0 867.5Q1517 895 1517 924Q1517 953 1506.0 981.0Q1495 1009 1455.5 1031.5Q1416 1054 1333.0 1067.0Q1250 1080 1106 1080H762Z" fill="#313131"/>
</g>
</svg>