<svg xmlns="http://www.w3.org/2000/svg" width="100%" height="auto" viewBox="240 80 530 360" version="1.1">
	<path d="M 476.500 100.002 C 471.999 104.704, 460.582 109.908, 450.660 111.781 C 445.897 112.680, 442 113.686, 442 114.016 C 442 114.346, 443.902 115.040, 446.228 115.558 C 451.169 116.659, 454.179 120.409, 456.047 127.791 C 457.714 134.375, 458.581 240.702, 457.089 255.526 C 455.779 268.539, 453.386 274.372, 448.374 276.762 C 445.254 278.249, 444.732 278.243, 441.438 276.672 C 436.812 274.466, 434.221 268.683, 432.965 257.759 C 432.443 253.217, 432.012 226.707, 432.008 198.849 L 432 148.198 428.750 151.255 C 422.817 156.836, 407.154 162.962, 398.750 162.988 C 393.772 163.004, 393.993 164.489, 399.220 166.155 C 401.986 167.037, 404.196 168.626, 405.632 170.768 C 409.578 176.649, 410.194 184.752, 409.835 226 C 409.530 260.890, 409.324 264.899, 407.639 268.754 C 405.431 273.806, 400.797 278, 397.423 278 C 396.090 278, 395 278.422, 395 278.938 C 395 280.013, 433.038 280.651, 470.263 280.200 C 485.015 280.022, 495 279.517, 495 278.950 C 495 278.428, 494.057 278, 492.904 278 C 489.023 278, 485.141 274.750, 482.822 269.558 C 480.739 264.893, 480.534 262.748, 480.190 241.971 L 479.816 219.442 485.602 213.702 C 496.231 203.158, 507.310 199.641, 516.500 203.896 C 525.328 207.983, 529.957 216.697, 535.945 240.500 C 538.237 249.608, 541.350 259.225, 543.174 262.827 C 546.902 270.189, 554.476 277.516, 559.843 278.951 C 564.429 280.177, 629 280.355, 629 279.142 C 629 278.654, 627.286 277.982, 625.192 277.647 C 620.613 276.915, 617.642 273.980, 615.396 267.972 C 614.088 264.472, 613.621 258.711, 613.247 241.473 L 612.769 219.445 619.179 213.473 C 633.415 200.209, 646.418 198.484, 656.461 208.528 C 661.256 213.323, 664.479 221.199, 668.878 238.878 C 674.878 262.985, 680.173 272.520, 690.270 277.401 L 695.500 279.929 728.750 279.982 C 750.676 280.018, 762 279.689, 762 279.018 C 762 278.458, 761.078 278, 759.950 278 C 756.025 278, 752.224 275.093, 749.852 270.277 L 747.500 265.500 747.234 208 C 747.088 176.375, 746.744 149.885, 746.471 149.133 C 746.113 148.150, 745.400 148.492, 743.938 150.352 C 739.887 155.502, 721.427 162.961, 712.667 162.988 C 707.999 163.003, 708.103 165.132, 712.819 166.097 C 717.092 166.971, 718.940 168.670, 721.413 174 C 723.399 178.282, 723.515 180.415, 723.817 218 C 724.149 259.279, 723.632 266.551, 719.936 272.578 C 718.898 274.271, 716.892 276.184, 715.478 276.828 C 711.602 278.594, 711.601 278.290, 715.465 274.896 C 720.326 270.628, 720.168 268.790, 715.011 269.614 C 708.937 270.585, 705.319 268.562, 700.896 261.718 C 695.882 253.960, 693.593 247.713, 688.969 229.159 C 684.585 211.566, 681.415 204.363, 675.423 198.371 C 668.538 191.485, 657.624 189.355, 644.750 192.384 C 641.587 193.129, 639 193.421, 639 193.034 C 639 192.647, 640.462 191.039, 642.250 189.461 C 644.038 187.883, 653.674 178.602, 663.665 168.836 C 675.601 157.170, 682.803 150.863, 684.665 150.447 C 690.171 149.217, 691.023 148.847, 690.456 147.928 C 689.720 146.738, 650 146.697, 650 147.886 C 650 148.374, 652.006 149.074, 654.457 149.441 C 659.883 150.255, 663.983 154.488, 664.032 159.327 C 664.061 162.173, 661.457 165.040, 638.782 187.127 L 613.500 211.755 613 154.127 C 612.719 121.760, 612.130 97.252, 611.657 98.215 C 609.250 103.108, 591.989 110.958, 580.250 112.499 C 575.320 113.146, 572.800 115, 576.851 115 C 584.047 115, 588.256 120.322, 590.013 131.643 C 591.599 141.866, 590.844 262.170, 589.162 267.219 C 587.636 271.800, 583.734 276.575, 580.913 277.313 C 579.231 277.752, 579.528 277.139, 582.374 274.293 C 584.338 272.328, 585.746 270.399, 585.503 270.004 C 585.259 269.610, 582.869 269.498, 580.192 269.756 C 575.831 270.175, 574.952 269.897, 571.758 267.092 C 566.051 262.081, 560.657 249.748, 556.111 231.314 C 550.347 207.941, 545.332 198.775, 535.568 193.769 C 530.058 190.945, 519.313 190.311, 511.543 192.353 C 508.266 193.214, 505.447 193.780, 505.278 193.611 C 505.109 193.442, 514.835 183.805, 526.892 172.195 C 541.444 158.181, 549.768 150.875, 551.656 150.459 C 556.287 149.439, 557 149.116, 557 148.031 C 557 147.356, 549.916 147, 536.500 147 C 516.859 147, 510.630 147.979, 520.750 149.475 C 526.302 150.296, 528.510 151.985, 530.022 156.568 C 530.864 159.119, 530.815 160.448, 529.810 162.275 C 529.089 163.585, 518.997 173.847, 507.382 185.079 C 495.767 196.310, 484.967 207.049, 483.382 208.942 L 480.500 212.384 480 154.626 L 479.500 96.868 476.500 100.002 M 708.700 101.179 C 705.637 102.296, 705.565 104.670, 708.608 104.220 C 709.648 104.066, 712.160 103.673, 714.190 103.346 C 719.088 102.558, 722.157 103.430, 726.173 106.750 C 729.495 109.496, 729.498 109.496, 727.928 107 C 725.927 103.819, 718.493 99.976, 714.538 100.079 C 712.867 100.122, 710.240 100.617, 708.700 101.179 M 741.500 101.431 C 739.850 102.192, 737.375 104.051, 736 105.562 L 733.500 108.310 737.482 105.655 C 741.770 102.796, 748.414 102.081, 752.144 104.077 C 753.251 104.669, 754.876 104.878, 755.756 104.540 C 757.172 103.997, 757.184 103.756, 755.867 102.439 C 753.767 100.339, 745.174 99.736, 741.500 101.431 M 700.975 106.565 C 698.439 113.236, 700.723 117.062, 709.056 120.101 C 712.359 121.305, 715.262 122.615, 715.507 123.012 C 716.430 124.504, 706.385 121.898, 703.750 119.961 C 700.182 117.339, 700.262 118.681, 703.980 123.814 C 707.200 128.258, 709.652 129.799, 717.693 132.426 C 724.269 134.575, 727.845 137.385, 729.723 141.879 L 731.203 145.422 732.480 142.461 C 734.482 137.817, 739.250 134.017, 744.967 132.509 C 752.140 130.617, 757.552 126.799, 760.076 121.851 L 762.192 117.704 759.494 119.826 C 756.640 122.071, 751.434 123.453, 748.350 122.784 C 747.224 122.539, 748.670 121.733, 752.046 120.722 C 757.412 119.117, 761.070 116.296, 762.291 112.825 C 763.111 110.491, 761.173 104, 759.656 104 C 756.909 104, 748 115.429, 748 118.953 C 748 119.532, 746.200 121.631, 744 123.619 C 741.800 125.607, 740 127.678, 740 128.222 C 740 128.767, 738.865 130.105, 737.478 131.196 C 736.090 132.288, 734.123 134.803, 733.105 136.787 L 731.255 140.393 729.654 137.297 C 728.773 135.594, 726.128 132.515, 723.776 130.455 C 721.424 128.395, 720.063 127.026, 720.750 127.414 C 723.632 129.038, 721.692 125.924, 718 123 C 715.800 121.258, 714 119.058, 714 118.112 C 714 114.327, 705.769 104, 702.753 104 C 702.312 104, 701.512 105.154, 700.975 106.565 M 715.833 110.750 C 716.329 111.713, 717.270 114.750, 717.923 117.500 C 718.599 120.347, 720.373 123.900, 722.041 125.750 C 723.653 127.537, 725.101 129, 725.259 129 C 726.237 129, 724.206 115.938, 722.989 114.404 C 719.208 109.639, 713.846 106.901, 715.833 110.750 M 742.143 111.533 C 738.538 114.566, 736.922 118.964, 737.254 124.831 L 737.500 129.160 740.687 125.486 C 742.557 123.331, 744.288 119.886, 744.874 117.154 C 745.423 114.592, 746.174 111.709, 746.543 110.748 C 747.500 108.255, 745.646 108.586, 742.143 111.533 M 255.500 114 C 255.840 114.550, 257.035 115, 258.155 115 C 261.425 115, 265.645 118.032, 267.348 121.605 C 270.782 128.804, 271.113 136.416, 270.804 201 C 270.520 260.330, 270.378 264.779, 268.640 268.754 C 266.431 273.806, 261.797 278, 258.423 278 C 257.090 278, 256 278.450, 256 279 C 256 279.629, 262.500 280, 273.500 280 C 284.500 280, 291 279.629, 291 279 C 291 278.450, 289.910 278, 288.577 278 C 285.203 278, 280.569 273.806, 278.360 268.754 C 276.615 264.764, 276.483 260.224, 276.219 195.500 L 275.938 126.500 283.069 133.500 C 297.102 147.275, 316.688 168.740, 327.229 181.895 C 349.910 210.205, 367.494 240.765, 376.094 266.823 L 380.442 280 384.221 280 L 388 280 388.008 211.750 C 388.012 174.212, 388.443 139.783, 388.965 135.241 C 390.515 121.763, 394.853 115, 401.950 115 C 403.078 115, 404 114.550, 404 114 C 404 113.370, 397.333 113, 386 113 C 369.071 113, 363.190 113.975, 371.808 115.353 C 376.354 116.080, 379.308 118.971, 381.694 125.028 C 383.276 129.046, 383.484 134.523, 383.743 179 L 384.032 228.500 378.895 219 C 364.317 192.037, 341.777 163.213, 309.121 129.772 L 292.742 113 273.812 113 C 261.447 113, 255.096 113.347, 255.500 114 M 412.898 115.251 C 411.029 116.490, 408.446 119.627, 407.157 122.223 C 404 128.585, 404.837 133.833, 409.865 139.215 C 419.927 149.982, 437.167 143.099, 437.167 128.314 C 437.167 116.425, 422.798 108.691, 412.898 115.251 M 733.750 120.973 C 731.446 124.228, 731.204 133.906, 733.474 132.022 C 735.190 130.598, 736.306 125.571, 735.832 121.408 L 735.500 118.500 733.750 120.973 M 726.691 124.577 C 726.875 128.976, 728.273 132, 730.122 132 C 731.393 132, 731.200 125.533, 729.839 122.547 C 727.995 118.499, 726.478 119.477, 726.691 124.577 M 294 258.500 C 294 259.484, 294.985 260, 296.865 260 C 303.979 260, 307.616 266.948, 309.111 283.397 C 310.569 299.420, 309.773 403.339, 308.156 408.219 C 302.606 424.966, 284.536 421.160, 269.500 400.079 C 266.750 396.223, 264.267 393.053, 263.983 393.034 C 263.699 393.015, 261.721 397.571, 259.588 403.158 C 256.794 410.475, 255.982 413.748, 256.684 414.860 C 258.349 417.500, 270.193 423.003, 276.832 424.222 C 290.008 426.639, 307.587 422.247, 318.119 413.906 C 322.842 410.165, 327.563 403.510, 330.400 396.594 C 332.413 391.687, 332.511 389.350, 333.058 333 C 333.473 290.282, 333.963 273.474, 334.875 270.697 C 336.598 265.449, 340.860 260.980, 344.940 260.146 C 346.816 259.763, 348.534 258.898, 348.759 258.224 C 349.074 257.278, 342.897 257, 321.583 257 C 297.731 257, 294 257.203, 294 258.500 M 400 292.627 C 386.297 295.223, 374.608 301.414, 364.375 311.496 C 357.533 318.237, 355.536 320.999, 351.722 329 C 346.064 340.867, 344.702 346.767, 344.816 358.905 C 344.926 370.539, 346.705 377.814, 352.165 388.966 C 363.014 411.121, 389.226 426.264, 414 424.689 C 443.956 422.785, 468.852 401.962, 475.648 373.126 C 478.137 362.563, 477.060 346.757, 473.123 336.084 C 465.695 315.947, 451.750 302.328, 431.490 295.425 C 425.172 293.272, 421.302 292.644, 413 292.428 C 407.225 292.277, 401.375 292.367, 400 292.627 M 533.500 292.620 C 510.906 298.342, 494.605 310.643, 485.957 328.500 C 480.990 338.757, 479.030 347.247, 479.030 358.500 C 479.030 374.314, 483.974 388.452, 493.711 400.477 C 503.162 412.149, 517.785 420.631, 533.500 423.557 C 544.538 425.613, 553.669 425.023, 564.624 421.549 C 578.881 417.027, 590.467 408.809, 598.546 397.487 C 607.484 384.962, 611.302 373.108, 611.266 358 C 611.212 336.046, 599.681 314.932, 581.131 302.823 C 570.532 295.904, 560.240 292.813, 546.500 292.425 C 540.450 292.254, 534.600 292.342, 533.500 292.620 M 679.734 293.432 C 672.223 296.112, 664.595 301.687, 655.887 310.863 L 647 320.226 647 306.510 L 647 292.793 643.297 296.044 C 638.025 300.673, 628.473 304.860, 618.285 307.007 C 613.453 308.026, 609.275 308.911, 609 308.973 C 608.725 309.036, 610.747 309.855, 613.493 310.794 C 619.691 312.911, 622.406 317.287, 624.034 327.781 C 625.680 338.388, 624.806 407.172, 622.960 412.381 C 621.132 417.539, 616.902 421.608, 612.515 422.431 C 610.551 422.800, 609.208 423.528, 609.531 424.051 C 610.302 425.298, 663 425.326, 663 424.079 C 663 423.573, 661.552 422.841, 659.783 422.452 C 655.017 421.406, 653.051 419.920, 650.887 415.732 C 647.796 409.748, 647.064 399.811, 647.031 363.400 L 647 329.300 649.827 325.400 C 654.751 318.608, 665.311 309.024, 670.688 306.467 C 676.659 303.628, 683.628 303.239, 688.003 305.501 C 691.300 307.207, 695.880 313.513, 698.284 319.659 C 700.977 326.544, 703.722 338.512, 706.963 357.500 C 712.944 392.546, 719.589 412.199, 727.740 418.953 C 737.433 426.984, 753.993 426.437, 760.083 417.884 C 762.451 414.558, 761.870 412.464, 759.005 413.997 C 753.112 417.151, 746.412 412.811, 741.619 402.734 C 737.102 393.238, 735.036 385.354, 729.506 356.500 C 722.605 320.489, 719.078 310.274, 710.309 300.899 C 702.857 292.932, 689.961 289.783, 679.734 293.432 M 392.286 299.451 C 381.947 302.682, 374.775 309.068, 369.895 319.387 C 365.417 328.855, 363.625 338.673, 364.322 349.912 C 367.532 401.635, 416.807 437.502, 444.290 408.121 C 453.096 398.707, 457.239 386.721, 457.297 370.491 C 457.376 348.503, 448.130 326.770, 432.458 312.110 C 419.946 300.405, 404.652 295.586, 392.286 299.451 M 526.286 299.451 C 511.994 303.917, 503.310 314.952, 499.489 333.500 C 493.447 362.834, 511.277 401.673, 536.352 413.799 C 552.829 421.767, 567.449 419.872, 578.503 408.335 C 600.462 385.418, 594.542 338.431, 566.360 311.952 C 554.013 300.352, 538.694 295.573, 526.286 299.451 M 357 470.675 C 357 471.128, 359.070 477.710, 361.601 485.303 C 367.335 502.509, 367.985 502.643, 373.406 487.739 C 375.554 481.832, 377.579 477.004, 377.906 477.008 C 378.233 477.013, 380.272 481.963, 382.438 488.008 C 387.832 503.069, 388.516 502.883, 394.327 484.780 C 396.838 476.958, 398.711 470.378, 398.489 470.156 C 396.863 468.530, 394.633 472.285, 391.780 481.457 C 389.976 487.255, 388.275 491.994, 388 491.987 C 387.725 491.980, 385.700 487.147, 383.500 481.248 C 380.953 474.418, 378.920 470.411, 377.903 470.217 C 376.705 469.988, 375.481 472.239, 373.015 479.206 C 367.724 494.150, 368.180 494.034, 363.999 481.497 C 361.486 473.957, 359.809 470.398, 358.667 470.177 C 357.750 469.999, 357 470.223, 357 470.675 M 417 484.539 L 417 499.078 425.750 498.789 C 432.733 498.558, 434.500 498.197, 434.500 497 C 434.500 495.324, 434.388 495.300, 426 495.125 L 420 495 420 490.500 L 420 486 426.500 486 C 431.516 486, 433 485.668, 433 484.548 C 433 483.465, 431.411 483.020, 426.750 482.798 L 420.500 482.500 420.193 478.250 L 419.885 474 426.943 474 C 433.333 474, 434 473.811, 434 472 C 434 470.157, 433.333 470, 425.500 470 L 417 470 417 484.539 M 454 484.500 L 454 499 463.073 499 C 471.175 499, 472.111 498.813, 471.813 497.250 C 471.542 495.826, 470.223 495.445, 464.740 495.204 L 458 494.909 458 482.454 C 458 470.667, 457.893 470, 456 470 C 454.092 470, 454 470.667, 454 484.500 M 490 484.427 L 490 499 498.500 499 C 506.333 499, 507 498.843, 507 497 C 507 495.206, 506.333 495, 500.531 495 L 494.062 495 493.781 482.762 C 493.535 472.033, 493.284 470.483, 491.750 470.189 C 490.148 469.882, 490 471.086, 490 484.427 M 526 484.500 C 526 496.578, 526.245 499, 527.467 499 C 528.652 499, 528.989 496.864, 529.217 487.923 L 529.500 476.846 537.271 487.923 C 541.544 494.015, 545.707 499, 546.521 499 C 547.758 499, 548 496.633, 548 484.500 C 548 472.422, 547.755 470, 546.533 470 C 545.347 470, 545.011 472.157, 544.783 481.250 L 544.500 492.500 536.688 481.250 C 532.392 475.063, 528.230 470, 527.438 470 C 526.253 470, 526 472.553, 526 484.500 M 569.778 470.750 C 569.498 471.366, 569.586 487.946, 569.916 496.750 C 569.996 498.900, 570.377 499, 578.500 499 C 586.333 499, 587 498.843, 587 497 C 587 495.190, 586.333 495, 580 495 L 573 495 573 490.500 L 573 486 579.500 486 C 584.611 486, 586 485.679, 586 484.500 C 586 483.321, 584.611 483, 579.500 483 L 573 483 573 478.546 L 573 474.091 579.740 473.796 C 585.223 473.555, 586.542 473.174, 586.813 471.750 C 587.110 470.194, 586.202 470, 578.632 470 C 573.949 470, 569.965 470.337, 569.778 470.750 M 607.455 472.455 C 602.278 477.631, 605.083 482.751, 615 486.229 C 620.342 488.102, 621.561 488.943, 621.845 490.948 C 622.625 496.463, 614.543 497.863, 610 493 C 608.459 491.350, 606.703 490, 606.099 490 C 604.046 490, 604.989 493.143, 607.923 496.077 C 610.365 498.519, 611.659 499, 615.788 499 C 628.449 499, 630.037 486.104, 617.703 483.449 C 611.563 482.127, 608.849 480.138, 609.189 477.211 C 609.784 472.095, 618.937 471.574, 621.195 476.528 C 621.814 477.887, 623.149 479, 624.161 479 C 626.395 479, 626.416 478.705, 624.452 474.907 C 621.636 469.462, 611.858 468.051, 607.455 472.455 M 647.262 471.941 C 642.207 476.718, 643.835 482.871, 650.715 484.984 C 661.255 488.222, 663.555 490.445, 660.023 493.977 C 656.984 497.016, 652.370 496.607, 649 493 C 647.459 491.350, 645.703 490, 645.099 490 C 643.046 490, 643.989 493.143, 646.923 496.077 C 649.365 498.519, 650.659 499, 654.788 499 C 667.449 499, 669.037 486.104, 656.703 483.449 C 650.563 482.127, 647.849 480.138, 648.189 477.211 C 648.795 471.996, 658.231 471.653, 660.487 476.764 C 661.852 479.856, 665.387 479.844, 664.463 476.750 C 663.220 472.586, 660.415 470.698, 654.809 470.250 C 650.415 469.899, 649.114 470.191, 647.262 471.941 M 258 484.975 C 258 485.653, 268.493 486, 289 486 C 307.830 486, 320 485.628, 320 485.054 C 320 484.480, 307.774 484.076, 289 484.028 C 268.442 483.976, 258 484.295, 258 484.975 M 719.813 484.749 C 728.785 484.914, 743.185 484.914, 751.813 484.748 C 760.441 484.581, 753.100 484.446, 735.500 484.446 C 717.900 484.447, 710.841 484.583, 719.813 484.749" stroke="none" fill="#313131" fill-rule="evenodd"/>
</svg>